<?xml version="1.0" encoding="UTF-8"?>
<!DOCTYPE svg PUBLIC "-//W3C//DTD SVG 1.1//EN" "http://www.w3.org/Graphics/SVG/1.1/DTD/svg11.dtd">
<!-- Creator: CorelDRAW -->
<svg xmlns="http://www.w3.org/2000/svg" xml:space="preserve" width="125.666mm" height="126.004mm" style="shape-rendering:geometricPrecision; text-rendering:geometricPrecision; image-rendering:optimizeQuality; fill-rule:evenodd; clip-rule:evenodd"
viewBox="0 0 161.594 162.03"
 xmlns:xlink="http://www.w3.org/1999/xlink">
 <defs>
  <style type="text/css">
   <![CDATA[
    .fil0 {fill:none}
    .fil2 {fill:#00923F}
    .fil4 {fill:#DEDEDD}
    .fil3 {fill:white}
    .fil1 {fill:#00743F}
    .fil5 {fill:#EFF0F1}
   ]]>
  </style>
 </defs>
 <g id="Capa_x0020_1">
  <metadata id="CorelCorpID_0Corel-Layer"/>
  <rect class="fil0" y="-1.40219e-005" width="161.595" height="161.595"/>
  <path class="fil1" d="M117.57 19.7596c37.7866,21.8162 36.3466,19.3218 36.3466,62.9541 0,43.6322 1.44009,41.1379 -36.3466,62.9541 -37.7866,21.816 -34.9064,21.816 -72.693,0 -37.7866,-21.8162 -36.3465,-19.3218 -36.3465,-62.9541 0,-43.6322 -1.44021,-41.1379 36.3465,-62.9541 37.7866,-21.816 34.9064,-21.816 72.693,0z"/>
  <path class="fil2" d="M117.144 17.8431c37.7866,21.8162 36.3465,19.3218 36.3465,62.9541 0,43.6322 1.44021,41.1379 -36.3465,62.9541 -37.7866,21.816 -34.9064,21.816 -72.693,0 -37.7866,-21.8162 -36.3465,-19.3218 -36.3465,-62.9541 0,-43.6322 -1.44021,-41.1379 36.3465,-62.9541 37.7866,-21.816 34.9064,-21.816 72.693,0z"/>
  <g id="_113946520">
   <circle id="_113948560" class="fil3" cx="80.5407" cy="24.8352" r="8.09041"/>
   <circle id="_113948488" class="fil3" cx="24.5786" cy="80.7972" r="8.09041"/>
   <circle id="_113948416" class="fil3" cx="137.016" cy="80.7972" r="8.09041"/>
   <circle id="_113948344" class="fil3" cx="80.5407" cy="136.759" r="8.09041"/>
   <polygon id="_113948272" class="fil4" points="107.495,35.3601 107.495,44.6016 92.0924,44.6016 92.0246,69.2454 116.223,69.2454 116.223,53.8431 125.464,53.8431 125.464,78.4868 82.8509,78.4868 82.8499,35.3601 "/>
   <polygon id="_113948200" class="fil4" points="107.495,126.234 107.495,116.993 92.0924,116.993 92.0246,92.349 116.223,92.349 116.223,107.751 125.464,107.751 125.464,83.1076 82.8509,83.1076 82.8499,126.234 "/>
   <polygon id="_113948128" class="fil4" points="53.5864,126.234 53.5864,116.993 68.9888,116.993 69.0566,92.349 44.8584,92.349 44.8584,107.751 35.617,107.751 35.617,83.1076 78.2303,83.1076 78.2313,126.234 "/>
   <polygon id="_113948056" class="fil4" points="53.5864,35.3601 53.5864,44.6016 68.9888,44.6016 69.0566,69.2454 44.8584,69.2454 44.8584,53.8431 35.617,53.8431 35.617,78.4868 78.2303,78.4868 78.2313,35.3601 "/>
   <path id="_113947984" class="fil5" d="M80.7973 46.799c18.7732,0 33.9982,15.225 33.9982,33.9982 0,18.7732 -15.225,33.9982 -33.9982,33.9982 -18.7732,0 -33.9982,-15.225 -33.9982,-33.9982 0,-18.7732 15.225,-33.9982 33.9982,-33.9982zm0 9.15822c13.7162,0 24.84,11.1237 24.84,24.84 0,13.7162 -11.1237,24.84 -24.84,24.84 -13.7162,0 -24.84,-11.1237 -24.84,-24.84 0,-13.7162 11.1237,-24.84 24.84,-24.84z"/>
   <polygon id="_113947912" class="fil3" points="92.0246,69.2454 116.223,69.2454 116.223,53.8431 125.464,53.8431 125.464,78.4868 82.8509,78.4868 "/>
   <polygon id="_113947840" class="fil3" points="92.0924,92.2812 92.0924,116.479 107.495,116.479 107.495,125.721 82.8509,125.721 82.8509,83.1076 "/>
   <polygon id="_113946568" class="fil3" points="69.0566,92.349 44.8584,92.349 44.8584,107.751 35.617,107.751 35.617,83.1076 78.2303,83.1076 "/>
   <polygon id="_113946544" class="fil3" points="68.9888,68.7998 68.9888,44.6016 53.5864,44.6016 53.5864,35.3601 78.2303,35.3601 78.2303,77.9733 "/>
  </g>
 </g>
</svg>
